# xmcd
#
# Track frame offsets: 
#        150
#        17147
#        37220
#        52311
#        72637
#        89257
#        111050
#        130929
#        157599
#        183272
#        199390
#        234266
#        251965
#        267433
#        291676
#        306838
#        332617
#
# Disc length: 4758 seconds
#
# Revision: 0
# Processed by: cddbd v1.5.2PL0 Copyright (c) Steve Scherf et al.
# Submitted via: ExactAudioCopy v1.3
#
DISCID=07129411
DTITLE=Various Artist - Akella Presents - vol.166 - Blues-Rock  CD1
DYEAR=2018
DGENRE=Blues
TTITLE0=David Gogo - Sulfite Boogie
TTITLE1=Blindside Blues Band - Journey to the Stars
TTITLE2=Will Hoge - Nikki's a Republican Now
TTITLE3=Dirty Dave Osti - River Dog
TTITLE4=George Hotte Miller - The Love She's Givin'
TTITLE5=Jay O'Rourke - Bullshit
TTITLE6=Ryan McGarvey - Break My Heart
TTITLE7=Reverend Rusty and The Case - Everybody's Darling
TTITLE8=Sean Chambers - Keep Movin On
TTITLE9=Ghost Riders - Live Together
TTITLE10=Mike Zito - Lovering
TTITLE11=Brush Shiels - Texas Strut
TTITLE12=Hadden Sayers - Good Good Girl
TTITLE13=The Black Cat Bones - 100 Soldiers
TTITLE14=Hot'n'Nasty - Real Thing
TTITLE15=The Cold Stares - Two Keys and a Good Book
TTITLE16=Super Vintage - Destiny
EXTD=
EXTT0=
EXTT1=
EXTT2=
EXTT3=
EXTT4=
EXTT5=
EXTT6=
EXTT7=
EXTT8=
EXTT9=
EXTT10=
EXTT11=
EXTT12=
EXTT13=
EXTT14=
EXTT15=
EXTT16=
PLAYORDER=
